<?xml version="1.0" encoding="UTF-8" standalone="no"?>
<!-- Created with Inkscape (http://www.inkscape.org/) -->

<svg
   width="187.6846mm"
   height="110.10561mm"
   viewBox="0 0 73.3 43.001618"
   version="1.1"
   id="svg6982"
   inkscape:version="1.2.2 (b0a8486541, 2022-12-01)"
   sodipodi:docname="CEsplash_white_solid_lp4.svg"
   xmlns:inkscape="http://www.inkscape.org/namespaces/inkscape"
   xmlns:sodipodi="http://sodipodi.sourceforge.net/DTD/sodipodi-0.dtd"
   xmlns="http://www.w3.org/2000/svg"
   xmlns:svg="http://www.w3.org/2000/svg"
   xmlns:rdf="http://www.w3.org/1999/02/22-rdf-syntax-ns#"
   xmlns:cc="http://creativecommons.org/ns#"
   xmlns:dc="http://purl.org/dc/elements/1.1/">
  <defs
     id="defs6976" />
  <sodipodi:namedview
     id="base"
     pagecolor="#000000"
     bordercolor="#666666"
     borderopacity="1.0"
     inkscape:pageopacity="0"
     inkscape:pageshadow="2"
     inkscape:zoom="2.8284273"
     inkscape:cx="426.73892"
     inkscape:cy="206.47517"
     inkscape:document-units="mm"
     inkscape:current-layer="layer1"
     showgrid="true"
     inkscape:window-width="2560"
     inkscape:window-height="1371"
     inkscape:window-x="0"
     inkscape:window-y="0"
     inkscape:window-maximized="1"
     inkscape:snap-global="false"
     inkscape:showpageshadow="2"
     inkscape:pagecheckerboard="0"
     inkscape:deskcolor="#000000">
    <inkscape:grid
       type="xygrid"
       id="grid7527"
       originx="-0.35002274"
       originy="-0.25709245" />
  </sodipodi:namedview>
  <metadata
     id="metadata6979">
    <rdf:RDF>
      <cc:Work
         rdf:about="">
        <dc:format>image/svg+xml</dc:format>
        <dc:type
           rdf:resource="http://purl.org/dc/dcmitype/StillImage" />
      </cc:Work>
    </rdf:RDF>
  </metadata>
  <g
     inkscape:label="Layer 1"
     inkscape:groupmode="layer"
     id="layer1"
     transform="translate(-0.31586019,-0.232)">
    <path
       style="color:#000000;font-style:normal;font-variant:normal;font-weight:normal;font-stretch:normal;font-size:medium;line-height:normal;font-family:sans-serif;font-variant-ligatures:normal;font-variant-position:normal;font-variant-caps:normal;font-variant-numeric:normal;font-variant-alternates:normal;font-feature-settings:normal;text-indent:0;text-align:start;text-decoration:none;text-decoration-line:none;text-decoration-style:solid;text-decoration-color:#000000;letter-spacing:normal;word-spacing:normal;text-transform:none;writing-mode:lr-tb;direction:ltr;text-orientation:mixed;dominant-baseline:auto;baseline-shift:baseline;text-anchor:start;white-space:normal;shape-padding:0;clip-rule:nonzero;display:inline;overflow:visible;visibility:visible;opacity:1;isolation:auto;mix-blend-mode:normal;color-interpolation:sRGB;color-interpolation-filters:linearRGB;solid-color:#000000;solid-opacity:1;vector-effect:none;fill:#ffffff;fill-opacity:1;fill-rule:nonzero;stroke:none;stroke-width:0.352778;stroke-linecap:butt;stroke-linejoin:miter;stroke-miterlimit:4;stroke-dasharray:none;stroke-dashoffset:0;stroke-opacity:1;color-rendering:auto;image-rendering:auto;shape-rendering:auto;text-rendering:auto;enable-background:accumulate"
       d="m 47.163783,0.49620326 c -1.79531,-0.06474 -3.85409,0.30724 -6.04489,1.05678594 -4.38161,1.499089 -9.898893,4.299059 -14.526187,8.7623578 l -0.136476,0.13177 c 0.367724,0.11522 1.025936,0.36676 1.359017,0.54805 0.363962,0.19582 0.91771,0.56227 1.215633,0.81714 4.519891,-4.3454288 9.111123,-7.4422598 13.024453,-8.9994488 2.94238,-1.170824 5.44788,-1.451475 7.27859,-0.859377 0.64977,0.226427 1.00541,0.393345 1.61305,0.894519 0.60765,0.501174 1.30421,1.495599 1.58806,2.605524 1.6e-4,5.29e-4 -10e-5,0.0013 7e-5,0.0021 0.28365,1.110254 0.42374,2.456614 0.22483,4.0250737 l 0.88547,0.17001 c 0.31743,-2.5018797 0.0332,-4.6335387 -0.88441,-6.2068487 -2.7e-4,-5.29e-4 2.1e-4,-0.0016 -7e-5,-0.0021 -0.30584,-0.524028 -0.68209,-0.985882 -1.13027,-1.379244 -2.7e-4,-2.64e-4 2.3e-4,-0.0011 -6e-5,-0.0016 -0.55613,-0.487834 -1.21428,-0.848154 -1.94289,-1.10587596 -0.76341,-0.27003398 -1.60529,-0.42576498 -2.52388,-0.45888798 z"
       id="path4546-9"
       inkscape:connector-curvature="0"
       sodipodi:nodetypes="csccccsczccccccccccc" />
    <path
       d="m 14.988335,20.768237 q -1.397,0 -2.494149,-0.5842 -1.084005,-0.5969 -1.682105,-1.651 -0.5981,-1.0541 -0.55142,-2.3876 0.04668,-1.3335 0.71858,-2.3876 0.6719,-1.0541 1.79725,-1.6383 1.138496,-0.5969 2.535496,-0.5969 1.2192,0 2.181984,0.4318 0.962785,0.4318 1.582031,1.2446 l -1.650881,1.4478 q -0.827145,-1.0414 -2.059045,-1.0414 -0.7239,0 -1.306514,0.3175 -0.569914,0.3175 -0.907865,0.9017 -0.324806,0.5715 -0.351036,1.3208 -0.02623,0.7493 0.25812,1.3335 0.297493,0.5715 0.845179,0.889 0.560386,0.3175 1.284286,0.3175 1.2319,0 2.131955,-1.0414 l 1.549519,1.4478 q -0.676154,0.8128 -1.669169,1.2446 -0.993016,0.4318 -2.212216,0.4318 z"
       style="font-style:normal;font-variant:normal;font-weight:800;font-stretch:normal;font-size:48px;line-height:1.25;font-family:Montserrat;-inkscape-font-specification:'Montserrat Ultra-Bold';text-align:center;letter-spacing:0px;word-spacing:0px;text-anchor:middle;fill:#ffffff;fill-opacity:1;stroke:none;stroke-width:0.352778;stroke-miterlimit:4;stroke-dasharray:none;stroke-opacity:1"
       id="path4524-1"
       inkscape:connector-curvature="0" />
    <path
       d="m 24.216869,20.768237 c -0.9398,0 -1.779501,-0.19897 -2.519104,-0.5969 -0.731137,-0.39793 -1.300306,-0.94827 -1.707506,-1.651 -0.398733,-0.70273 -0.582688,-1.49437 -0.551864,-2.3749 0.03082,-0.88053 0.270203,-1.67217 0.718136,-2.3749 0.4564,-0.70273 1.064097,-1.25307 1.823094,-1.651 0.767464,-0.39793 1.621096,-0.5969 2.560896,-0.5969 0.9398,0 1.775271,0.19897 2.506407,0.5969 0.739606,0.39793 1.308775,0.94827 1.707505,1.651 0.4072,0.70273 0.595384,1.49437 0.564563,2.3749 -0.03085,0.88053 -0.274437,1.67217 -0.730837,2.3749 -0.44793,0.70273 -1.055631,1.25307 -1.823095,1.651 -0.758997,0.39793 -1.608395,0.5969 -2.548195,0.5969 z"
       style="font-style:normal;font-variant:normal;font-weight:800;font-stretch:normal;font-size:48px;line-height:1.25;font-family:Montserrat;-inkscape-font-specification:'Montserrat Ultra-Bold';text-align:center;letter-spacing:0px;word-spacing:0px;text-anchor:middle;fill:#ffffff;fill-opacity:1;stroke:none;stroke-width:0.352778;stroke-miterlimit:4;stroke-dasharray:none;stroke-opacity:1"
       id="path4526-3"
       inkscape:connector-curvature="0"
       sodipodi:nodetypes="sccsccsccsccs" />
    <path
       d="m 33.598401,20.768237 q -1.0795,0 -2.086164,-0.2667 -1.006663,-0.2667 -1.626105,-0.7112 l 0.89041,-1.8542 q 0.583118,0.3937 1.362074,0.635 0.778957,0.2413 1.540957,0.2413 1.4478,0 1.47313,-0.7239 0.0133,-0.381 -0.399533,-0.5588 -0.399733,-0.1905 -1.307018,-0.3937 -0.99574,-0.2159 -1.660396,-0.4572 -0.66421,-0.254 -1.12769,-0.8001 -0.463491,-0.5461 -0.431036,-1.4732 0.02842,-0.8128 0.495629,-1.4605 0.467618,-0.6604 1.357263,-1.0414 0.902335,-0.381 2.185035,-0.381 0.876306,0 1.720086,0.2032 0.84424,0.1905 1.47859,0.5715 l -0.84005,1.8669 q -1.24599,-0.6858 -2.439798,-0.6858 -0.7493,0 -1.100197,0.2286 -0.35046,0.2159 -0.362903,0.5715 -0.01248,0.3556 0.387727,0.5334 0.400169,0.1778 1.295201,0.3683 1.00845,0.2159 1.65995,0.4699 0.66466,0.2413 1.12814,0.7874 0.47663,0.5334 0.44418,1.4605 -0.0281,0.8001 -0.49518,1.4478 -0.46717,0.6477 -1.36995,1.0414 -0.902352,0.381 -2.172352,0.381 z"
       style="font-style:normal;font-variant:normal;font-weight:800;font-stretch:normal;font-size:48px;line-height:1.25;font-family:Montserrat;-inkscape-font-specification:'Montserrat Ultra-Bold';text-align:center;letter-spacing:0px;word-spacing:0px;text-anchor:middle;fill:#ffffff;fill-opacity:1;stroke:none;stroke-width:0.352778;stroke-miterlimit:4;stroke-dasharray:none;stroke-opacity:1"
       id="path4528-8"
       inkscape:connector-curvature="0" />
    <path
       d="m 46.717183,20.590437 0.13954,-4.7117 -2.42027,3.8354 h -1.1176 l -2.14348,-3.7084 -0.16049,4.5847 h -2.3241 l 0.31121,-8.89 h 2.0701 l 2.94458,5.1308 3.22762,-5.1308 h 2.0701 l -0.28581,8.89 z"
       style="font-style:normal;font-variant:normal;font-weight:800;font-stretch:normal;font-size:48px;line-height:1.25;font-family:Montserrat;-inkscape-font-specification:'Montserrat Ultra-Bold';text-align:center;letter-spacing:0px;word-spacing:0px;text-anchor:middle;fill:#ffffff;fill-opacity:1;stroke:none;stroke-width:0.352778;stroke-miterlimit:4;stroke-dasharray:none;stroke-opacity:1"
       id="path4530-1"
       inkscape:connector-curvature="0" />
    <path
       d="m 51.106673,11.700437 h 2.51461 l -0.31122,8.89 h -2.5146 z"
       style="font-style:normal;font-variant:normal;font-weight:800;font-stretch:normal;font-size:48px;line-height:1.25;font-family:Montserrat;-inkscape-font-specification:'Montserrat Ultra-Bold';text-align:center;letter-spacing:0px;word-spacing:0px;text-anchor:middle;fill:#ffffff;fill-opacity:1;stroke:none;stroke-width:0.352778;stroke-miterlimit:4;stroke-dasharray:none;stroke-opacity:1"
       id="path4532-3"
       inkscape:connector-curvature="0" />
    <path
       d="m 59.537553,20.768237 q -1.397,0 -2.49415,-0.5842 -1.084,-0.5969 -1.6821,-1.651 -0.5981,-1.0541 -0.55143,-2.3876 0.0467,-1.3335 0.71858,-2.3876 0.6719,-1.0541 1.79725,-1.6383 1.1385,-0.5969 2.5355,-0.5969 1.2192,0 2.18199,0.4318 0.96278,0.4318 1.58203,1.2446 l -1.65088,1.4478 q -0.82715,-1.0414 -2.05905,-1.0414 -0.7239,0 -1.30651,0.3175 -0.56992,0.3175 -0.90787,0.9017 -0.32481,0.5715 -0.35104,1.3208 -0.0262,0.7493 0.25813,1.3335 0.29748,0.5715 0.84517,0.889 0.56039,0.3175 1.28429,0.3175 1.2319,0 2.13195,-1.0414 l 1.54952,1.4478 q -0.67615,0.8128 -1.66917,1.2446 -0.99301,0.4318 -2.21221,0.4318 z"
       style="font-style:normal;font-variant:normal;font-weight:800;font-stretch:normal;font-size:48px;line-height:1.25;font-family:Montserrat;-inkscape-font-specification:'Montserrat Ultra-Bold';text-align:center;letter-spacing:0px;word-spacing:0px;text-anchor:middle;fill:#ffffff;fill-opacity:1;stroke:none;stroke-width:0.352778;stroke-miterlimit:4;stroke-dasharray:none;stroke-opacity:1"
       id="path4534-7"
       inkscape:connector-curvature="0" />
    <path
       d="m 7.9346106,29.759806 -0.06802,1.9431 H 0.72919103 L 1.040395,22.812907 h 6.9722996 l -0.06802,1.9431 H 3.461575 l -0.05246,1.498599 h 3.9496999 l -0.0658,1.8796 H 3.343315 l -0.05691,1.6256 z"
       style="font-style:normal;font-variant:normal;font-weight:800;font-stretch:normal;font-size:48px;line-height:1.25;font-family:Montserrat;-inkscape-font-specification:'Montserrat Ultra-Bold';text-align:center;letter-spacing:0px;word-spacing:0px;text-anchor:middle;fill:#ffffff;fill-opacity:1;stroke:none;stroke-width:0.352778;stroke-miterlimit:4;stroke-dasharray:none;stroke-opacity:1"
       id="path4536-6"
       inkscape:connector-curvature="0" />
    <path
       d="m 15.330155,31.702906 -1.745026,-2.7559 -1.912574,2.7559 H 8.8023556 l 3.3958794,-4.4958 -2.9449754,-4.394199 h 2.8320994 l 1.688195,2.5654 1.842405,-2.5654 h 2.7178 l -3.249067,4.292599 3.141063,4.5974 z"
       style="font-style:normal;font-variant:normal;font-weight:800;font-stretch:normal;font-size:48px;line-height:1.25;font-family:Montserrat;-inkscape-font-specification:'Montserrat Ultra-Bold';text-align:center;letter-spacing:0px;word-spacing:0px;text-anchor:middle;fill:#ffffff;fill-opacity:1;stroke:none;stroke-width:0.352778;stroke-miterlimit:4;stroke-dasharray:none;stroke-opacity:1"
       id="path4538-1"
       inkscape:connector-curvature="0" />
    <path
       d="m 23.699641,22.812907 q 1.2065,0 2.081273,0.4064 0.875217,0.3937 1.331592,1.143 0.456813,0.7366 0.421689,1.739899 -0.03516,1.0033 -0.543501,1.7399 -0.508391,0.7366 -1.411618,1.143 -0.902782,0.3937 -2.109282,0.3937 h -1.549399 l -0.08136,2.3241 h -2.5146 l 0.311204,-8.889999 z m -0.312893,4.584699 q 0.7747,0 1.17996,-0.3302 0.405703,-0.3429 0.427487,-0.9652 0.02179,-0.622299 -0.359911,-0.965199 -0.381697,-0.3429 -1.156397,-0.3429 h -1.396999 l -0.09114,2.603499 z"
       style="font-style:normal;font-variant:normal;font-weight:800;font-stretch:normal;font-size:48px;line-height:1.25;font-family:Montserrat;-inkscape-font-specification:'Montserrat Ultra-Bold';text-align:center;letter-spacing:0px;word-spacing:0px;text-anchor:middle;fill:#ffffff;fill-opacity:1;stroke:none;stroke-width:0.352778;stroke-miterlimit:4;stroke-dasharray:none;stroke-opacity:1"
       id="path4540-4"
       inkscape:connector-curvature="0" />
    <path
       d="m 28.862983,22.812907 h 2.5146 l -0.241403,6.896099 h 4.241803 l -0.0698,1.9939 H 28.55178 Z"
       style="font-style:normal;font-variant:normal;font-weight:800;font-stretch:normal;font-size:48px;line-height:1.25;font-family:Montserrat;-inkscape-font-specification:'Montserrat Ultra-Bold';text-align:center;letter-spacing:0px;word-spacing:0px;text-anchor:middle;fill:#ffffff;fill-opacity:1;stroke:none;stroke-width:0.352778;stroke-miterlimit:4;stroke-dasharray:none;stroke-opacity:1"
       id="path4542-9"
       inkscape:connector-curvature="0" />
    <path
       d="m 40.618893,31.880706 c -0.9398,0 -1.7795,-0.19898 -2.5191,-0.5969 -0.73114,-0.39793 -1.30031,-0.94828 -1.70751,-1.651 -0.39873,-0.70273 -0.58268,-1.49438 -0.55186,-2.3749 0.0309,-0.88053 0.27023,-1.67218 0.71814,-2.374899 0.4564,-0.70273 1.0641,-1.25307 1.82309,-1.651 0.76747,-0.39793 1.6211,-0.5969 2.5609,-0.5969 0.9398,0 1.77527,0.19897 2.5064,0.5969 0.73961,0.39793 1.30878,0.94827 1.70751,1.651 0.4072,0.702719 0.59538,1.494369 0.56456,2.374899 -0.0309,0.88052 -0.27447,1.67217 -0.73084,2.3749 -0.44793,0.70272 -1.05563,1.25307 -1.82309,1.651 -0.759,0.39792 -1.6084,0.5969 -2.5482,0.5969 z"
       style="font-style:normal;font-variant:normal;font-weight:800;font-stretch:normal;font-size:48px;line-height:1.25;font-family:Montserrat;-inkscape-font-specification:'Montserrat Ultra-Bold';text-align:center;letter-spacing:0px;word-spacing:0px;text-anchor:middle;fill:#ffffff;fill-opacity:1;stroke:none;stroke-width:0.352778;stroke-miterlimit:4;stroke-dasharray:none;stroke-opacity:1"
       id="path4544-2"
       inkscape:connector-curvature="0"
       sodipodi:nodetypes="scccccscccccs" />
    <path
       d="m 50.851343,29.340706 h -1.3716 l -0.0827,2.3622 h -2.5146 l 0.31121,-8.889999 h 4.064 q 1.2065,0 2.08127,0.4064 0.87522,0.3937 1.33158,1.143 0.45683,0.7366 0.4217,1.739899 -0.0338,0.9652 -0.51633,1.6891 -0.4694,0.7112 -1.32183,1.1176 l 1.8199,2.794 h -2.6924 z m 1.70087,-3.2385 q 0.0218,-0.622299 -0.35991,-0.965199 -0.3817,-0.3429 -1.1564,-0.3429 h -1.397 l -0.0911,2.603499 h 1.397 q 0.7747,0 1.17996,-0.3302 0.4057,-0.3429 0.42749,-0.9652 z"
       style="font-style:normal;font-variant:normal;font-weight:800;font-stretch:normal;font-size:48px;line-height:1.25;font-family:Montserrat;-inkscape-font-specification:'Montserrat Ultra-Bold';text-align:center;letter-spacing:0px;word-spacing:0px;text-anchor:middle;fill:#ffffff;fill-opacity:1;stroke:none;stroke-width:0.352778;stroke-miterlimit:4;stroke-dasharray:none;stroke-opacity:1"
       id="path4546-0"
       inkscape:connector-curvature="0" />
    <path
       d="m 63.488853,29.759806 -0.068,1.9431 h -7.1374 l 0.31121,-8.889999 h 6.9723 l -0.068,1.9431 h -4.4831 l -0.0525,1.498599 h 3.9497 l -0.0658,1.8796 h -3.9497 l -0.0569,1.6256 z"
       style="font-style:normal;font-variant:normal;font-weight:800;font-stretch:normal;font-size:48px;line-height:1.25;font-family:Montserrat;-inkscape-font-specification:'Montserrat Ultra-Bold';text-align:center;letter-spacing:0px;word-spacing:0px;text-anchor:middle;fill:#ffffff;fill-opacity:1;stroke:none;stroke-width:0.352778;stroke-miterlimit:4;stroke-dasharray:none;stroke-opacity:1"
       id="path4548-1"
       inkscape:connector-curvature="0" />
    <path
       d="m 68.785133,29.340706 h -1.3716 l -0.0827,2.3622 h -2.5146 l 0.31121,-8.889999 h 4.064 q 1.2065,0 2.08127,0.4064 0.87522,0.3937 1.33159,1.143 0.45682,0.7366 0.42169,1.739899 -0.0338,0.9652 -0.51632,1.6891 -0.4694,0.7112 -1.32183,1.1176 l 1.81989,2.794 h -2.6924 z m 1.70087,-3.2385 q 0.0218,-0.622299 -0.35991,-0.965199 -0.3817,-0.3429 -1.1564,-0.3429 h -1.397 l -0.0911,2.603499 h 1.397 q 0.7747,0 1.17996,-0.3302 0.40569,-0.3429 0.42748,-0.9652 z"
       style="font-style:normal;font-variant:normal;font-weight:800;font-stretch:normal;font-size:48px;line-height:1.25;font-family:Montserrat;-inkscape-font-specification:'Montserrat Ultra-Bold';text-align:center;letter-spacing:0px;word-spacing:0px;text-anchor:middle;fill:#ffffff;fill-opacity:1;stroke:none;stroke-width:0.352778;stroke-miterlimit:4;stroke-dasharray:none;stroke-opacity:1"
       id="path4550-8"
       inkscape:connector-curvature="0" />
    <path
       style="color:#000000;font-style:normal;font-variant:normal;font-weight:normal;font-stretch:normal;font-size:medium;line-height:normal;font-family:sans-serif;font-variant-ligatures:normal;font-variant-position:normal;font-variant-caps:normal;font-variant-numeric:normal;font-variant-alternates:normal;font-feature-settings:normal;text-indent:0;text-align:start;text-decoration:none;text-decoration-line:none;text-decoration-style:solid;text-decoration-color:#000000;letter-spacing:normal;word-spacing:normal;text-transform:none;writing-mode:lr-tb;direction:ltr;text-orientation:mixed;dominant-baseline:auto;baseline-shift:baseline;text-anchor:start;white-space:normal;shape-padding:0;clip-rule:nonzero;display:inline;overflow:visible;visibility:visible;opacity:1;isolation:auto;mix-blend-mode:normal;color-interpolation:sRGB;color-interpolation-filters:linearRGB;solid-color:#000000;solid-opacity:1;vector-effect:none;fill:#ffffff;fill-opacity:1;fill-rule:nonzero;stroke:none;stroke-width:0.352778;stroke-linecap:butt;stroke-linejoin:miter;stroke-miterlimit:4;stroke-dasharray:none;stroke-dashoffset:0;stroke-opacity:1;color-rendering:auto;image-rendering:auto;shape-rendering:auto;text-rendering:auto;enable-background:accumulate"
       d="m 17.978069,42.896326 c 1.795309,0.0647 3.854081,-0.30724 6.044901,-1.05678 4.381591,-1.49909 9.898874,-4.29906 14.526183,-8.76237 l 0.13647,-0.13177 c -0.36772,-0.11522 -1.02593,-0.36676 -1.35901,-0.54805 -0.36397,-0.19582 -0.91772,-0.56227 -1.21564,-0.81714 -4.519901,4.34543 -9.111117,7.44227 -13.024459,8.99946 -2.942379,1.17082 -5.447868,1.45147 -7.278585,0.85937 -0.649776,-0.22642 -1.005415,-0.39334 -1.613057,-0.89451 -0.607641,-0.50118 -1.304207,-1.4956 -1.588057,-2.60553 -1.58e-4,-5.3e-4 1.05e-4,-10e-4 -7e-5,-0.002 -0.283651,-1.11026 -0.423737,-2.45662 -0.224858,-4.02508 l -0.885468,-0.17002 c -0.317432,2.50188 -0.03321,4.63356 0.884409,6.20687 2.68e-4,5.3e-4 -1.9e-4,0.002 7e-5,0.002 0.305839,0.52402 0.682087,0.98588 1.130264,1.37924 2.79e-4,2.6e-4 -2.25e-4,10e-4 7e-5,0.002 0.556135,0.48783 1.214288,0.84815 1.942898,1.10587 0.76341,0.27004 1.605288,0.42577 2.523884,0.45889 z"
       id="path4546-9-1"
       inkscape:connector-curvature="0"
       sodipodi:nodetypes="csccccsczccccccccccc" />
  </g>
</svg>
